<svg width="24" height="24" viewBox="0 0 24 24" fill="none" xmlns="http://www.w3.org/2000/svg">
<path d="M17.123 12.627C17.098 10.094 19.189 8.879 19.282 8.819C18.107 7.099 16.277 6.864 15.625 6.837C14.068 6.679 12.586 7.754 11.795 7.754C11.007 7.754 9.787 6.86 8.495 6.884C6.799 6.909 5.234 7.87 4.36 9.39C2.596 12.45 3.908 16.985 5.627 19.467C6.467 20.682 7.469 22.047 8.784 21.997C10.05 21.947 10.529 21.178 12.06 21.178C13.591 21.178 14.022 21.998 15.362 21.973C16.725 21.947 17.588 20.734 18.422 19.516C19.387 18.106 19.784 16.741 19.808 16.671C19.778 16.658 17.15 15.651 17.124 12.626L17.123 12.627ZM14.605 5.194C15.303 4.347 15.774 3.172 15.645 2C14.64 2.04 13.421 2.67 12.7 3.515C12.053 4.265 11.486 5.46 11.638 6.609C12.76 6.697 13.906 6.039 14.605 5.194Z" fill="#3C042F"/>
</svg>
