<svg width="24" height="24" viewBox="0 0 24 24" fill="none" xmlns="http://www.w3.org/2000/svg">
<path d="M4.5 21C4.08333 21 3.72933 20.8543 3.438 20.563C3.14667 20.2717 3.00067 19.9173 3 19.5V17.6L7 14.05V21H4.5ZM8 21V17H16V21H8ZM17 21V12.8L12.725 8.99999L15.75 6.32499L20.5 10.55C20.6667 10.7 20.7917 10.871 20.875 11.063C20.9583 11.255 21 11.459 21 11.675V19.5C21 19.9167 20.8543 20.271 20.563 20.563C20.2717 20.855 19.9173 21.0007 19.5 21H17ZM3 16.25V11.675C3 11.4583 3.04167 11.25 3.125 11.05C3.20833 10.85 3.33333 10.6833 3.5 10.55L11 3.89999C11.1333 3.76666 11.2877 3.67099 11.463 3.61299C11.6383 3.55499 11.8173 3.52566 12 3.52499C12.1833 3.52499 12.3627 3.55433 12.538 3.61299C12.7133 3.67166 12.8673 3.76733 13 3.89999L15 5.67499L3 16.25Z" fill="#9747FF"/>
</svg>
