<svg width="24" height="24" viewBox="0 0 24 24" fill="none" xmlns="http://www.w3.org/2000/svg">
<path d="M17.7539 14C18.3329 14.0002 18.8895 14.2235 19.308 14.6236C19.7265 15.0236 19.9747 15.5696 20.0009 16.148V16.25H12.0039V17.249L19.9789 17.25C19.9181 17.7809 19.7445 18.2926 19.4699 18.751L12.0039 18.749V19.749L18.6419 19.751C17.0819 21.257 14.8519 22.001 11.9999 22.001C8.85391 22.001 6.46791 21.096 4.90191 19.261C4.32251 18.5824 4.00411 17.7193 4.00391 16.827V16.249C4.00378 15.9536 4.06185 15.661 4.17481 15.388C4.28778 15.1151 4.45342 14.867 4.66227 14.6581C4.87112 14.4491 5.11909 14.2834 5.39202 14.1703C5.66495 14.0572 5.95748 13.999 6.25291 13.999L17.7539 14ZM11.9999 2C12.7763 1.99922 13.5421 2.17961 14.2365 2.52681C14.9309 2.87401 15.5347 3.37845 15.9999 4H12.0029V4.999L16.5839 5C16.7879 5.468 16.9229 5.972 16.9759 6.5H12.0029V7.5L16.9759 7.502C16.9245 8.01943 16.7922 8.52559 16.5839 9.002L12.0029 9V10L15.9999 10.001C15.4884 10.6826 14.8112 11.2222 14.0325 11.5685C13.2539 11.9148 12.3996 12.0564 11.5509 11.9797C10.7021 11.9031 9.88707 11.6108 9.18307 11.1305C8.47906 10.6503 7.90949 9.9981 7.52841 9.23585C7.14733 8.4736 6.96741 7.6266 7.00571 6.77526C7.04401 5.92392 7.29928 5.09651 7.74727 4.37156C8.19526 3.64661 8.82111 3.0482 9.5654 2.63314C10.3097 2.21807 11.1477 2.00013 11.9999 2Z" fill="#9747FF"/>
</svg>
